{"accessors":[{"name":"Lo_poly_Spaceship_01_by_Liz_Reddington_1_positions","componentType":5126,"count":492,"min":[-338.46771240234375,-127.96319580078125,-306.2430419921875],"max":[338.46771240234375,127.96319580078125,436.4686279296875],"type":"VEC3","bufferView":0,"byteOffset":0},{"name":"Lo_poly_Spaceship_01_by_Liz_Reddington_1_normals","componentType":5126,"count":492,"min":[-1,-1,-1],"max":[1,1,1],"type":"VEC3","bufferView":0,"byteOffset":5904},{"name":"Lo_poly_Spaceship_01_by_Liz_Reddington_1_texcoords","componentType":5126,"count":492,"min":[0.125,0],"max":[0.875,1],"type":"VEC2","bufferView":1,"byteOffset":0},{"name":"Lo_poly_Spaceship_01_by_Liz_Reddington_1_0_indices","componentType":5123,"count":588,"min":[0],"max":[471],"type":"SCALAR","bufferView":2,"byteOffset":0},{"name":"Lo_poly_Spaceship_01_by_Liz_Reddington_1_1_indices","componentType":5123,"count":162,"min":[4],"max":[491],"type":"SCALAR","bufferView":2,"byteOffset":1176},{"name":"Lo_poly_Spaceship_01_by_Liz_Reddington_1_2_indices","componentType":5123,"count":60,"min":[169],"max":[427],"type":"SCALAR","bufferView":2,"byteOffset":1500}],"asset":{"generator":"obj2gltf","version":"2.0"},"buffers":[{"name":"Lo_poly_Spaceship_01_by_Liz_Reddington","byteLength":17364,"uri":"data:application/octet-stream;base64,"}],"bufferViews":[{"name":"bufferView_0","buffer":0,"byteLength":11808,"byteOffset":0,"byteStride":12,"target":34962},{"name":"bufferView_1","buffer":0,"byteLength":3936,"byteOffset":11808,"byteStride":8,"target":34962},{"name":"bufferView_2","buffer":0,"byteLength":1620,"byteOffset":15744,"target":34963}],"materials":[{"name":"lambert2SG","pbrMetallicRoughness":{"baseColorFactor":[0.4,0.4,0.4,1],"metallicFactor":0,"roughnessFactor":1},"emissiveFactor":[0,0,0],"alphaMode":"OPAQUE","doubleSided":false},{"name":"lambert4SG","pbrMetallicRoughness":{"baseColorFactor":[0.07,0.07,0.07,1],"metallicFactor":0,"roughnessFactor":1},"emissiveFactor":[0,0,0],"alphaMode":"OPAQUE","doubleSided":false},{"name":"lambert3SG","pbrMetallicRoughness":{"baseColorFactor":[0.33,0.04,0.04,1],"metallicFactor":0,"roughnessFactor":1},"emissiveFactor":[0,0,0],"alphaMode":"OPAQUE","doubleSided":false}],"meshes":[{"name":"Lo_poly_Spaceship_01_by_Liz_Reddington_1","primitives":[{"attributes":{"POSITION":0,"NORMAL":1,"TEXCOORD_0":2},"indices":3,"material":0,"mode":4},{"attributes":{"POSITION":0,"NORMAL":1,"TEXCOORD_0":2},"indices":4,"material":1,"mode":4},{"attributes":{"POSITION":0,"NORMAL":1,"TEXCOORD_0":2},"indices":5,"material":2,"mode":4}]}],"nodes":[{"name":"Lo_poly_Spaceship_01_by_Liz_Reddington","mesh":0}],"scene":0,"scenes":[{"nodes":[0]}]}
